<svg xmlns="http://www.w3.org/2000/svg" viewBox="0 0 1615 220">
  <path fill="#080202" d="M942.3 180.7c.4 5.8.7 11.3 1.2 16.9.1.9.4 2 1 2.7 1.8 2.2 2.1 4.6 1.7 7.3-.5 3.3-.2 3.5 3.1 4 3.6.6 7 1.7 10.6 2.5 1.9.4 3.7.7 5.6.9 1 .1 2.2.2 3.1-.1 1.1-.4 2.3-1.2 2.9-2.2.2-.4-1.1-1.7-1.7-2.6-.3-.3-.7-.6-.9-1.3 1.9.1 3.8.4 5.7.4 1.6 0 3.2-.1 4.7-.4.7-.2 1.8-1.2 1.7-1.7-.1-.8-.9-1.8-1.6-2.2-1.1-.5-2.5-.4-3.8-.7 1.5-.4-2.9-.8-4.3-1.4-.9-.4-1.7-1-.9-2.3.3-.5-.2-1.4-.5-2.1-1.9-3.7-4-7.3-5.8-11.1-.6-1.2-.9-2.7-.9-4.1 0-8.1.1-16.3.2-24.4.1-2.1.5-4.2 1.1-6.2 2-7.2 4.4-14.3 6-21.5 1.3-5.6 1.7-11.3 2.6-17 .3.3.9 1 1.5 1.7 1.9 2 3 1.8 3.7-.9.7-2.6 1-5.2 1.5-7.8.1-.6.2-1.2.3-2.4 1.6 2 2.9 3.7 4.2 5.4 7.1-9.9 14.5-18.8 12.8-31.3-.2-1.1-.3-2.3-.6-3.4-.2-1-.5-2.1-.8-3.3 3.2.5 6.2 1.1 9.2 1.6 1.3.2 2.7.3 4.1.3 1.8.1 2.5-1 2.3-2.6-.3-2.6-1.8-4.5-4.1-5.7-3.9-2.1-8.1-2.6-12.4-2.2-.6 0-1.7-.4-1.8-.8-.8-2.9-1.5-5.8-2.2-8.9 3.4-.7 6.4-1.2 9.4-1.9 6.2-1.4 11.7-4.2 16.8-7.9 2.7-2 5.3-4 8-6 .9-.7.9-1.2.4-2.3-2-4.2-.6-9.1 4-10.1 1.8-.4 2.8-1.4 3.8-2.9.7-1.2 2.1-2.1 3.4-2.9 1.6-.9 3.2-1.6 3.9-3.5.3-.8 1.7-1.2 2.6-1.6 6.1-2.6 12.3-5.2 18.4-7.9.6-.3 1-1 1.4-1.6-.7 0-1.4-.1-2 .1-6.5 2.6-12.9 5.4-19.4 8-.9.4-2.1.4-3.2.4-2.7-.1-5.3-.5-7.9-.3-1.1.1-2.5 1.1-3.2 2.2-1.4 2.1-2.6 4.5-3.6 6.8-1 2.1-2.2 3.8-4.6 4.6-.6.2-1.1.8-1.6 1.2-3.7 3.2-7.4 6.5-11.2 9.7-.7.6-1.8 1.1-2.8 1.1-4.5.2-9 .3-13.5.3-.8 0-1.7-.7-2.4-1.3-2.4-2.4-4.7-4.9-7.3-7.6 1.1-.6 2.5-1.6 4-2.3 2.7-1.2 3.3-2 2.7-4.9-.2-1.1-.6-2.2-1-3.3-.4-1-.8-1.7.5-2.5 1.2-.8.4-1.8-.4-2.1-4.2-1.6-5-5.9-7.4-8.8-.5-.6-1.3-1.3-2-1.4-1.9-.4-3.8-.4-5.7-.7-3.9-.6-6.9.9-9.6 3.6-3.2 3.2-3.5 6.8-2.1 10.7 1.2 3.3 2.8 6.4 4.3 9.7-.9 3.3-3.8 5.1-7 6.6-7 3.3-10.6 8.7-9.6 16.7.3 2.3.5 4.6 1 6.8 2.3 9.8.6 19-3.6 28-3.4 7.1-6.7 14.3-10.1 21.4-.3.7-.6 1.4-1 2.1 1.7 1.5 3.5 2.9 5 4.4.7.8 1.4 2 1.5 3 .5 11.6.9 23.3 1.4 34.9.4 9.4.9 18.9 1.4 28.5l-.2-.1z"/>
  <text x="-10.6" y="204.3" font-family="Copperplate Gothic Light,Copperplate Gothic Light_MSFontService,sans-serif" font-size="248" font-weight="300">CLASS CUM</text>
</svg>