<svg xmlns="http://www.w3.org/2000/svg">
        <path d="M35.57 676.57c1.49 22.06 2.8 43.31 4.51 64.54.28 3.53 1.51 7.64 3.74 10.26 7.09 8.34 7.95 17.75 6.54 27.9-1.78 12.8-.67 13.21 11.85 15.3 13.63 2.27 26.94 6.41 40.46 9.41 7.09 1.59 14.31 2.73 21.53 3.57 3.99.46 8.5.91 12.06-.49 4.23-1.66 8.75-4.67 10.93-8.38.88-1.49-4.06-6.51-6.54-9.78-.98-1.27-2.5-2.13-3.34-4.97 7.26.56 14.52 1.5 21.79 1.58 6.04.07 12.25-.23 18.09-1.61 2.69-.64 6.77-4.49 6.53-6.42-.39-3.08-3.29-7.07-6.16-8.33-4.37-1.93-9.72-1.52-14.49-2.74-5.55-1.42-11.11-3.15-16.32-5.5-3.32-1.5-6.51-3.76-3.5-8.88 1.01-1.72-.58-5.53-1.83-7.94-7.37-14.2-15.31-28.12-22.36-42.47-2.3-4.69-3.48-10.41-3.48-15.66-.03-31.2.18-62.4.93-93.59.19-7.98 2.01-16.09 4.16-23.85 7.59-27.47 16.74-54.58 23.16-82.32 4.94-21.34 6.66-43.43 9.81-65.16 1.06 1.19 3.32 3.82 5.68 6.35 7.22 7.72 11.36 6.95 14-3.46 2.49-9.85 3.79-20 5.57-30.02.4-2.23.61-4.49 1.21-9.04 6.13 7.85 11.19 14.32 16.24 20.79 27.2-38.05 55.59-72.07 49.16-119.9-.58-4.32-1.27-8.64-2.15-12.91-.82-3.96-1.98-7.86-3.23-12.76 12.19 2.09 23.76 4.22 35.39 6 5.17.79 10.44 1.01 15.67 1.26 6.94.32 9.48-3.65 8.75-9.97-1.17-10.07-6.9-17.17-15.58-21.83-14.86-7.98-30.87-9.82-47.49-8.61-2.35.17-6.54-1.55-7.03-3.24-3.25-11.07-5.71-22.36-8.58-34.2 12.93-2.58 24.57-4.72 36.12-7.25 23.74-5.19 44.8-16.17 64.25-30.42 10.34-7.58 20.45-15.47 30.8-23.03 3.51-2.57 3.54-4.6 1.67-8.64-7.51-16.21-2.3-34.87 15.36-38.75 6.87-1.51 10.8-5.2 14.44-11.14 2.82-4.61 8.17-8.04 13.02-10.96 5.97-3.6 12.16-6.06 15.05-13.58 1.11-2.9 6.34-4.53 9.98-6.1 23.5-10.11 47.11-19.96 70.57-30.18 2.26-.99 3.68-3.92 5.49-5.95-2.62.1-5.53-.53-7.81.4-24.79 10.07-49.42 20.52-74.23 30.5-3.7 1.49-8.17 1.59-12.25 1.49-10.16-.26-20.37-1.91-30.41-1.13-4.4.35-9.74 4.4-12.38 8.31-5.49 8.13-9.8 17.12-13.97 26.05-3.81 8.16-8.6 14.74-17.72 17.5-2.33.7-4.23 3-6.2 4.7-14.34 12.38-28.51 24.95-43.06 37.07-2.86 2.38-7.06 4.2-10.74 4.38-17.18.86-34.4 1.32-51.61 1.23-3.06-.02-6.66-2.74-9.07-5.16-9.12-9.17-17.85-18.72-27.81-29.27 4.17-2.43 9.48-6.19 15.33-8.76 10.45-4.6 12.64-7.68 10.47-18.62-.85-4.26-2.26-8.45-3.82-12.52-1.39-3.65-2.91-6.45 1.8-9.41 4.73-2.97 1.36-6.91-1.67-8.04-16.05-5.94-19.03-22.47-28.4-33.78-1.97-2.39-4.96-4.84-7.85-5.4-7.12-1.41-14.5-1.49-21.71-2.54-14.9-2.15-26.46 3.52-36.8 13.9C96.01 26.52 94.61 40.59 100 55.52c4.5 12.47 10.61 24.36 16.28 37.13-3.47 12.8-14.37 19.54-26.88 25.43-26.78 12.61-40.55 33.34-36.75 63.83 1.08 8.66 1.76 17.46 3.77 25.92 8.92 37.51 2.22 72.88-13.87 107.06-12.88 27.36-25.85 54.68-38.77 82.01-1.23 2.58-2.41 5.18-3.78 8.15 6.54 5.75 13.26 10.94 19.04 17.01 2.85 3 5.46 7.56 5.65 11.53 2.08 44.58 3.5 89.2 5.43 133.78 1.57 36.14 3.58 72.26 5.45 109.22v-.02z" fill="#080202"/>
</svg>
