<svg width="50" height="50" xmlns="http://www.w3.org/2000/svg" xmlns:svg="http://www.w3.org/2000/svg">
  <path d="m17.93,37.87c0.08,1.1 0.13,2.15 0.23,3.22c0.02,0.17 0.08,0.38 0.19,0.51c0.34,0.42 0.4,0.88 0.32,1.39c-0.1,0.63 -0.04,0.67 0.59,0.76c0.69,0.11 1.33,0.32 2.02,0.48c0.36,0.08 0.7,0.13 1.07,0.17c0.19,0.02 0.42,0.04 0.59,-0.02c0.21,-0.08 0.44,-0.23 0.55,-0.42c0.04,-0.08 -0.21,-0.32 -0.32,-0.5c-0.06,-0.06 -0.13,-0.11 -0.17,-0.25c0.36,0.02 0.72,0.08 1.09,0.08c0.3,0 0.61,-0.02 0.9,-0.08c0.13,-0.04 0.34,-0.23 0.32,-0.32c-0.02,-0.15 -0.17,-0.34 -0.3,-0.42c-0.21,-0.1 -0.48,-0.08 -0.72,-0.13c0.29,-0.08 -0.55,-0.15 -0.82,-0.27c-0.17,-0.08 -0.32,-0.19 -0.17,-0.44c0.06,-0.1 -0.04,-0.27 -0.1,-0.4c-0.36,-0.7 -0.76,-1.39 -1.1,-2.11c-0.11,-0.23 -0.17,-0.51 -0.17,-0.78c0,-1.54 0.02,-3.1 0.04,-4.65c0.02,-0.4 0.1,-0.8 0.21,-1.18c0.38,-1.37 0.84,-2.72 1.14,-4.09c0.25,-1.07 0.32,-2.15 0.5,-3.24c0.06,0.06 0.17,0.19 0.29,0.32c0.36,0.38 0.57,0.34 0.7,-0.17c0.13,-0.5 0.19,-0.99 0.29,-1.49c0.02,-0.11 0.04,-0.23 0.06,-0.46c0.3,0.38 0.55,0.7 0.8,1.03c1.35,-1.89 2.76,-3.58 2.44,-5.96c-0.04,-0.21 -0.06,-0.44 -0.11,-0.65c-0.04,-0.19 -0.1,-0.4 -0.15,-0.63c0.61,0.1 1.18,0.21 1.75,0.3c0.25,0.04 0.51,0.06 0.78,0.06c0.34,0.02 0.48,-0.19 0.44,-0.5c-0.06,-0.5 -0.34,-0.86 -0.78,-1.09c-0.74,-0.4 -1.54,-0.5 -2.36,-0.42c-0.11,0 -0.32,-0.08 -0.34,-0.15c-0.15,-0.55 -0.29,-1.1 -0.42,-1.69c0.65,-0.13 1.22,-0.23 1.79,-0.36c1.18,-0.27 2.23,-0.8 3.2,-1.5c0.51,-0.38 1.01,-0.76 1.52,-1.14c0.17,-0.13 0.17,-0.23 0.08,-0.44c-0.38,-0.8 -0.11,-1.73 0.76,-1.92c0.34,-0.08 0.53,-0.27 0.72,-0.55c0.13,-0.23 0.4,-0.4 0.65,-0.55c0.3,-0.17 0.61,-0.3 0.74,-0.67c0.06,-0.15 0.32,-0.23 0.5,-0.3c1.16,-0.5 2.34,-0.99 3.5,-1.5c0.11,-0.06 0.19,-0.19 0.27,-0.3c-0.13,0 -0.27,-0.02 -0.38,0.02c-1.24,0.5 -2.46,1.03 -3.69,1.52c-0.17,0.08 -0.4,0.08 -0.61,0.08c-0.51,-0.02 -1.01,-0.1 -1.5,-0.06c-0.21,0.02 -0.48,0.21 -0.61,0.42c-0.27,0.4 -0.5,0.86 -0.69,1.29c-0.19,0.4 -0.42,0.72 -0.88,0.88c-0.11,0.04 -0.21,0.15 -0.3,0.23c-0.7,0.61 -1.41,1.24 -2.13,1.85c-0.13,0.11 -0.34,0.21 -0.53,0.21c-0.86,0.04 -1.71,0.06 -2.57,0.06c-0.15,0 -0.32,-0.13 -0.46,-0.25c-0.46,-0.46 -0.9,-0.93 -1.39,-1.45c0.21,-0.11 0.48,-0.3 0.76,-0.44c0.51,-0.23 0.63,-0.38 0.51,-0.93c-0.04,-0.21 -0.11,-0.42 -0.19,-0.63c-0.08,-0.19 -0.15,-0.32 0.1,-0.48c0.23,-0.15 0.08,-0.34 -0.08,-0.4c-0.8,-0.3 -0.95,-1.12 -1.41,-1.68c-0.1,-0.11 -0.25,-0.25 -0.38,-0.27c-0.36,-0.08 -0.72,-0.08 -1.09,-0.13c-0.74,-0.11 -1.31,0.17 -1.83,0.69c-0.61,0.61 -0.67,1.29 -0.4,2.04c0.23,0.63 0.53,1.22 0.82,1.85c-0.17,0.63 -0.72,0.97 -1.33,1.26c-1.33,0.63 -2.02,1.66 -1.83,3.18c0.06,0.44 0.1,0.88 0.19,1.29c0.44,1.87 0.11,3.62 -0.69,5.33c-0.65,1.35 -1.28,2.72 -1.92,4.08c-0.06,0.13 -0.11,0.27 -0.19,0.4c0.32,0.29 0.67,0.55 0.95,0.84c0.13,0.15 0.27,0.38 0.29,0.57c0.1,2.21 0.17,4.44 0.27,6.65c0.08,1.79 0.17,3.6 0.27,5.43l-0.04,-0.02l-0.05,-0.01z" fill="#080202" />
</svg>