<svg xmlns="http://www.w3.org/2000/svg" viewBox="0 0 165 25">
  <path fill="#080202" d="M95.23 19.07c.04.58.07 1.13.12 1.69.01.09.04.2.1.27.18.22.21.46.17.73-.05.33-.02.35.31.4.36.06.7.17 1.06.25.19.04.37.07.56.09.1.01.22.02.31-.01a.58.58 0 0 0 .29-.22c.02-.04-.11-.17-.17-.26-.03-.03-.07-.06-.09-.13.19.01.38.04.57.04.16 0 .32-.01.47-.04.07-.02.18-.12.17-.17-.01-.08-.09-.18-.16-.22-.11-.05-.25-.04-.38-.07.15-.04-.29-.08-.43-.14-.09-.04-.17-.1-.09-.23.03-.05-.02-.14-.05-.21-.19-.37-.4-.73-.58-1.11a.946.946 0 0 1-.09-.41c0-.81.01-1.63.02-2.44.01-.21.05-.42.11-.62.2-.72.44-1.43.6-2.15.13-.56.17-1.13.26-1.7.03.03.09.1.15.17.19.2.3.18.37-.09.07-.26.1-.52.15-.78.01-.06.02-.12.03-.24.16.2.29.37.42.54.71-.99 1.45-1.88 1.28-3.13-.02-.11-.03-.23-.06-.34-.02-.1-.05-.21-.08-.33.32.05.62.11.92.16.13.02.27.03.41.03.18.01.25-.1.23-.26-.03-.26-.18-.45-.41-.57-.39-.21-.81-.26-1.24-.22-.06 0-.17-.04-.18-.08-.08-.29-.15-.58-.22-.89.34-.07.64-.12.94-.19.62-.14 1.17-.42 1.68-.79.27-.2.53-.4.8-.6.09-.07.09-.12.04-.23-.2-.42-.06-.91.4-1.01.18-.04.28-.14.38-.29.07-.12.21-.21.34-.29.16-.09.32-.16.39-.35.03-.08.17-.12.26-.16.61-.26 1.23-.52 1.84-.79.06-.03.1-.1.14-.16-.07 0-.14-.01-.2.01-.65.26-1.29.54-1.94.8-.09.04-.21.04-.32.04-.27-.01-.53-.05-.79-.03-.11.01-.25.11-.32.22-.14.21-.26.45-.36.68-.1.21-.22.38-.46.46-.06.02-.11.08-.16.12-.37.32-.74.65-1.12.97-.07.06-.18.11-.28.11-.45.02-.9.03-1.35.03-.08 0-.17-.07-.24-.13-.24-.24-.47-.49-.73-.76.11-.06.25-.16.4-.23.27-.12.33-.2.27-.49-.02-.11-.06-.22-.1-.33-.04-.1-.08-.17.05-.25.12-.08.04-.18-.04-.21-.42-.16-.5-.59-.74-.88-.05-.06-.13-.13-.2-.14-.19-.04-.38-.04-.57-.07-.39-.06-.69.09-.96.36-.32.32-.35.68-.21 1.07.12.33.28.64.43.97-.09.33-.38.51-.7.66-.7.33-1.06.87-.96 1.67.03.23.05.46.1.68.23.98.06 1.9-.36 2.8-.34.71-.67 1.43-1.01 2.14-.03.07-.06.14-.1.21.17.15.35.29.5.44.07.08.14.2.15.3.05 1.16.09 2.33.14 3.49.04.94.09 1.89.14 2.85l-.02-.01z"/>
  <text x="-10.6" y="204.3" font-family="Copperplate Gothic Light,Copperplate Gothic Light_MSFontService,sans-serif" font-size="248" font-weight="300" transform="matrix(.1 0 0 .1 1 1)">CLASS CUM</text>
</svg>